<mxfile host="app.diagrams.net" agent="Mozilla/5.0 (Windows NT 10.0; Win64; x64) AppleWebKit/537.36 (KHTML, like Gecko) Chrome/135.0.0.0 Safari/537.36" version="26.2.14">
  <diagram name="Page-1" id="9361dd3d-8414-5efd-6122-117bd74ce7a7">
    <mxGraphModel grid="1" page="0" gridSize="10" guides="1" tooltips="1" connect="1" arrows="1" fold="1" pageScale="1.5" pageWidth="826" pageHeight="1169" background="none" math="0" shadow="0">
      <root>
        <mxCell id="0" />
        <mxCell id="1" parent="0" />
        <mxCell id="69" value="" style="fillColor=#DEE8FF;strokeColor=none" vertex="1" parent="1">
          <mxGeometry x="-70" y="-30" width="1140" height="480" as="geometry" />
        </mxCell>
        <mxCell id="2" value="" style="fillColor=#CC4125;strokeColor=#660000" vertex="1" parent="1">
          <mxGeometry x="200" y="150" width="10" height="230" as="geometry" />
        </mxCell>
        <mxCell id="3" value="press &quot;add menu&quot; button" style="edgeStyle=none;verticalLabelPosition=top;verticalAlign=bottom;labelPosition=left;align=right;entryX=0;entryY=0;entryDx=0;entryDy=0;" edge="1" parent="1" target="2">
          <mxGeometry width="100" height="100" as="geometry">
            <mxPoint x="110" y="149.5" as="sourcePoint" />
            <mxPoint x="200" y="149.5" as="targetPoint" />
            <mxPoint x="25" y="11" as="offset" />
          </mxGeometry>
        </mxCell>
        <mxCell id="4" value="&lt;&lt;view&gt;&gt;&#xa;:MenuManagementPage" style="shadow=1;fillColor=#A2C4C9;strokeColor=none" vertex="1" parent="1">
          <mxGeometry x="130" y="60" width="150" height="50" as="geometry" />
        </mxCell>
        <mxCell id="6" value="" style="fillColor=#CC4125;strokeColor=#660000" vertex="1" parent="1">
          <mxGeometry x="390" y="180" width="10" height="190" as="geometry" />
        </mxCell>
        <mxCell id="7" value="&lt;&lt;controller&gt;&gt;&#xa;:MenuController" style="shadow=1;fillColor=#A2C4C9;strokeColor=none" vertex="1" parent="1">
          <mxGeometry x="342.5" y="60" width="105" height="50" as="geometry" />
        </mxCell>
        <mxCell id="8" value="" style="edgeStyle=none;endArrow=none;dashed=1" edge="1" parent="1" source="7" target="6">
          <mxGeometry x="272.3350694444445" y="165" width="100" height="100" as="geometry">
            <mxPoint x="347.2588734567901" y="110" as="sourcePoint" />
            <mxPoint x="347.5761959876544" y="165" as="targetPoint" />
          </mxGeometry>
        </mxCell>
        <mxCell id="9" value="createMenu(menuDTO, user)" style="edgeStyle=none;verticalLabelPosition=top;verticalAlign=bottom;entryX=0.25;entryY=0;entryDx=0;entryDy=0;" edge="1" parent="1" target="6">
          <mxGeometry x="220" y="92" width="100" height="100" as="geometry">
            <mxPoint x="210" y="179.5" as="sourcePoint" />
            <mxPoint x="340" y="179.5" as="targetPoint" />
          </mxGeometry>
        </mxCell>
        <mxCell id="12" value="" style="edgeStyle=none;verticalLabelPosition=top;verticalAlign=bottom;labelPosition=left;align=right;endArrow=none;startArrow=classic;dashed=1;" edge="1" parent="1">
          <mxGeometry x="110" y="179.75887345679013" width="100" height="100" as="geometry">
            <mxPoint y="368" as="sourcePoint" />
            <mxPoint x="200" y="369.99887345679014" as="targetPoint" />
          </mxGeometry>
        </mxCell>
        <mxCell id="LWYYzreLKorD9LTGr7SO-120" value="&quot;Menu created succesfully&quot;&lt;div&gt;response seen&lt;/div&gt;" style="edgeLabel;html=1;align=center;verticalAlign=middle;resizable=0;points=[];" connectable="0" vertex="1" parent="12">
          <mxGeometry relative="1" as="geometry">
            <mxPoint as="offset" />
          </mxGeometry>
        </mxCell>
        <mxCell id="13" value="createMenu(menuDTO, user.restaurantPk)" style="edgeStyle=none;verticalLabelPosition=top;verticalAlign=bottom;dashed=1;entryX=0;entryY=0;entryDx=0;entryDy=0;exitX=1.056;exitY=0.044;exitDx=0;exitDy=0;exitPerimeter=0;" edge="1" parent="1" source="6" target="17">
          <mxGeometry width="100" height="100" as="geometry">
            <mxPoint x="410" y="189.99563271604936" as="sourcePoint" />
            <mxPoint x="550" y="190" as="targetPoint" />
            <mxPoint as="offset" />
          </mxGeometry>
        </mxCell>
        <mxCell id="15" value="&lt;&lt;controller&gt;&gt;&#xa;:MenuService" style="shadow=1;fillColor=#A2C4C9;strokeColor=none" vertex="1" parent="1">
          <mxGeometry x="590.0039506172839" y="59.99999999999997" width="105" height="50" as="geometry" />
        </mxCell>
        <mxCell id="16" value="" style="edgeStyle=none;endArrow=none" edge="1" parent="1" source="15" target="17">
          <mxGeometry x="437.042824074074" y="270" width="100" height="100" as="geometry">
            <mxPoint x="514.542824074074" y="219.99999999999997" as="sourcePoint" />
            <mxPoint x="514.542824074074" y="239.99999999999997" as="targetPoint" />
          </mxGeometry>
        </mxCell>
        <mxCell id="LWYYzreLKorD9LTGr7SO-111" style="edgeStyle=orthogonalEdgeStyle;rounded=0;orthogonalLoop=1;jettySize=auto;html=1;entryX=0.048;entryY=0.412;entryDx=0;entryDy=0;entryPerimeter=0;" edge="1" parent="1" source="17" target="21">
          <mxGeometry relative="1" as="geometry">
            <Array as="points">
              <mxPoint x="690" y="270" />
            </Array>
          </mxGeometry>
        </mxCell>
        <mxCell id="LWYYzreLKorD9LTGr7SO-112" value="menu = menuRepository.save(menu);" style="edgeLabel;html=1;align=center;verticalAlign=middle;resizable=0;points=[];" connectable="0" vertex="1" parent="LWYYzreLKorD9LTGr7SO-111">
          <mxGeometry x="-0.0867" relative="1" as="geometry">
            <mxPoint as="offset" />
          </mxGeometry>
        </mxCell>
        <mxCell id="17" value="" style="fillColor=#CC4125;strokeColor=#660000" vertex="1" parent="1">
          <mxGeometry x="637.5" y="190" width="10" height="160" as="geometry" />
        </mxCell>
        <mxCell id="21" value="" style="fillColor=#CC4125;strokeColor=#660000" vertex="1" parent="1">
          <mxGeometry x="870" y="220" width="10" height="120" as="geometry" />
        </mxCell>
        <mxCell id="22" value="&lt;&lt;model&gt;&gt;&#xa;m:Menu" style="shadow=1;fillColor=#A2C4C9;strokeColor=none" vertex="1" parent="1">
          <mxGeometry x="822.5" y="60" width="105" height="50" as="geometry" />
        </mxCell>
        <mxCell id="23" value="" style="edgeStyle=none;endArrow=none;dashed=1" edge="1" parent="1" source="22" target="21">
          <mxGeometry x="614.4878472222224" y="174.99999999999997" width="100" height="100" as="geometry">
            <mxPoint x="674.6527777777778" y="110" as="sourcePoint" />
            <mxPoint x="674.6527777777778" y="260" as="targetPoint" />
          </mxGeometry>
        </mxCell>
        <mxCell id="24" value="&lt;&lt;model&gt;&gt;&#xa;r:Restaurant" style="shadow=1;fillColor=#A2C4C9;strokeColor=none" vertex="1" parent="1">
          <mxGeometry x="937.5" y="60" width="105" height="50" as="geometry" />
        </mxCell>
        <mxCell id="25" value="" style="edgeStyle=none;endArrow=none;dashed=1" edge="1" parent="1" source="24" target="26">
          <mxGeometry x="727.3350694444446" y="165" width="100" height="100" as="geometry">
            <mxPoint x="802.2588734567901" y="110" as="sourcePoint" />
            <mxPoint x="802.5761959876544" y="165" as="targetPoint" />
          </mxGeometry>
        </mxCell>
        <mxCell id="26" value="" style="fillColor=#CC4125;strokeColor=#660000" vertex="1" parent="1">
          <mxGeometry x="985" y="220" width="10" height="120" as="geometry" />
        </mxCell>
        <mxCell id="33" value="" style="edgeStyle=elbowEdgeStyle;elbow=horizontal;endArrow=none;dashed=1" edge="1" parent="1" source="4" target="2">
          <mxGeometry x="230.00000000000003" y="310" width="100" height="100" as="geometry">
            <mxPoint x="230.00000000000003" y="410" as="sourcePoint" />
            <mxPoint x="330" y="310" as="targetPoint" />
          </mxGeometry>
        </mxCell>
        <mxCell id="71" value="add meal to menu" style="rounded=1;fontStyle=1;fillColor=#FFD966;strokeColor=none" vertex="1" parent="1">
          <mxGeometry x="-40" y="-10" width="150" height="30" as="geometry" />
        </mxCell>
        <mxCell id="LWYYzreLKorD9LTGr7SO-90" value="" style="edgeStyle=orthogonalEdgeStyle;rounded=0;orthogonalLoop=1;jettySize=auto;html=1;" edge="1" parent="1">
          <mxGeometry relative="1" as="geometry">
            <mxPoint x="268.05555555555566" y="733.1157407407409" as="sourcePoint" />
          </mxGeometry>
        </mxCell>
        <mxCell id="LWYYzreLKorD9LTGr7SO-93" value="&lt;div&gt;Restaurant&lt;/div&gt;" style="shape=umlActor;verticalLabelPosition=bottom;verticalAlign=top;html=1;outlineConnect=0;" vertex="1" parent="1">
          <mxGeometry x="80" y="180" width="30" height="60" as="geometry" />
        </mxCell>
        <mxCell id="LWYYzreLKorD9LTGr7SO-97" style="edgeStyle=orthogonalEdgeStyle;rounded=0;orthogonalLoop=1;jettySize=auto;html=1;exitX=0;exitY=0;exitDx=80;exitDy=59.5;exitPerimeter=0;entryX=0;entryY=0;entryDx=0;entryDy=0;endArrow=none;startFill=0;" edge="1" parent="1" source="LWYYzreLKorD9LTGr7SO-94" target="2">
          <mxGeometry relative="1" as="geometry" />
        </mxCell>
        <mxCell id="LWYYzreLKorD9LTGr7SO-94" value="" style="shape=note;whiteSpace=wrap;html=1;backgroundOutline=1;darkOpacity=0.05;size=19;" vertex="1" parent="1">
          <mxGeometry x="-50" y="60" width="90" height="100" as="geometry" />
        </mxCell>
        <mxCell id="LWYYzreLKorD9LTGr7SO-98" value="name&lt;div&gt;description&lt;/div&gt;&lt;div&gt;price&lt;/div&gt;&lt;div&gt;imageUrl&lt;/div&gt;&lt;div&gt;isAvailable&lt;/div&gt;&lt;div&gt;isDrink&lt;/div&gt;&lt;div&gt;category&lt;/div&gt;" style="text;html=1;align=center;verticalAlign=middle;whiteSpace=wrap;rounded=0;fontSize=10;" vertex="1" parent="1">
          <mxGeometry x="-50" y="60" width="90" height="100" as="geometry" />
        </mxCell>
        <mxCell id="LWYYzreLKorD9LTGr7SO-106" style="edgeStyle=orthogonalEdgeStyle;rounded=0;orthogonalLoop=1;jettySize=auto;html=1;exitX=1;exitY=0.75;exitDx=0;exitDy=0;" edge="1" parent="1" source="17">
          <mxGeometry relative="1" as="geometry">
            <mxPoint x="690.0039506172839" y="287.50429012345694" as="sourcePoint" />
            <mxPoint x="650" y="320" as="targetPoint" />
            <Array as="points">
              <mxPoint x="723" y="288" />
              <mxPoint x="723" y="320" />
            </Array>
          </mxGeometry>
        </mxCell>
        <mxCell id="LWYYzreLKorD9LTGr7SO-107" value="mapToDTO(savedMenu)" style="edgeLabel;html=1;align=center;verticalAlign=middle;resizable=0;points=[];" connectable="0" vertex="1" parent="LWYYzreLKorD9LTGr7SO-106">
          <mxGeometry x="0.001" y="-4" relative="1" as="geometry">
            <mxPoint y="8" as="offset" />
          </mxGeometry>
        </mxCell>
        <mxCell id="LWYYzreLKorD9LTGr7SO-108" value="loop" style="shape=umlFrame;whiteSpace=wrap;html=1;pointerEvents=0;width=53;height=20;" vertex="1" parent="1">
          <mxGeometry x="647.5" y="190" width="342.5" height="60" as="geometry" />
        </mxCell>
        <mxCell id="LWYYzreLKorD9LTGr7SO-109" value="[if(menu.getCategoryPks != null)&lt;br&gt;menu.setCategories(categories)]" style="text;html=1;align=center;verticalAlign=middle;whiteSpace=wrap;rounded=0;" vertex="1" parent="1">
          <mxGeometry x="647.5" y="190" width="342.5" height="50" as="geometry" />
        </mxCell>
        <mxCell id="LWYYzreLKorD9LTGr7SO-113" style="edgeStyle=orthogonalEdgeStyle;rounded=0;orthogonalLoop=1;jettySize=auto;html=1;" edge="1" parent="1">
          <mxGeometry relative="1" as="geometry">
            <mxPoint x="650" y="320" as="sourcePoint" />
            <mxPoint x="650" y="320" as="targetPoint" />
          </mxGeometry>
        </mxCell>
        <mxCell id="LWYYzreLKorD9LTGr7SO-116" style="edgeStyle=orthogonalEdgeStyle;rounded=0;orthogonalLoop=1;jettySize=auto;html=1;exitX=0;exitY=1;exitDx=0;exitDy=0;entryX=1.189;entryY=0.909;entryDx=0;entryDy=0;entryPerimeter=0;" edge="1" parent="1" source="17" target="6">
          <mxGeometry relative="1" as="geometry">
            <Array as="points">
              <mxPoint x="637" y="353" />
              <mxPoint x="519" y="353" />
            </Array>
          </mxGeometry>
        </mxCell>
        <mxCell id="LWYYzreLKorD9LTGr7SO-117" value="created MenuDTO" style="edgeLabel;html=1;align=center;verticalAlign=middle;resizable=0;points=[];" connectable="0" vertex="1" parent="LWYYzreLKorD9LTGr7SO-116">
          <mxGeometry x="0.0836" y="1" relative="1" as="geometry">
            <mxPoint x="9" y="-4" as="offset" />
          </mxGeometry>
        </mxCell>
        <mxCell id="LWYYzreLKorD9LTGr7SO-118" style="edgeStyle=orthogonalEdgeStyle;rounded=0;orthogonalLoop=1;jettySize=auto;html=1;exitX=0;exitY=1;exitDx=0;exitDy=0;entryX=0.856;entryY=0.955;entryDx=0;entryDy=0;entryPerimeter=0;" edge="1" parent="1" source="6" target="2">
          <mxGeometry relative="1" as="geometry">
            <Array as="points">
              <mxPoint x="300" y="370" />
            </Array>
          </mxGeometry>
        </mxCell>
        <mxCell id="LWYYzreLKorD9LTGr7SO-119" value="generatePkResponse&lt;div&gt;(HttpStatus.CREATED,&amp;nbsp;&lt;/div&gt;&lt;div&gt;createdMenu);&lt;/div&gt;" style="edgeLabel;html=1;align=center;verticalAlign=middle;resizable=0;points=[];" connectable="0" vertex="1" parent="LWYYzreLKorD9LTGr7SO-118">
          <mxGeometry x="0.1047" y="1" relative="1" as="geometry">
            <mxPoint x="20" y="-1" as="offset" />
          </mxGeometry>
        </mxCell>
      </root>
    </mxGraphModel>
  </diagram>
</mxfile>
